<?xml version="1.0" encoding="UTF-8"?>
<!DOCTYPE svg PUBLIC "-//W3C//DTD SVG 1.1//EN" "http://www.w3.org/Graphics/SVG/1.1/DTD/svg11.dtd">
<!-- Creator: CorelDRAW X7 -->
<svg xmlns="http://www.w3.org/2000/svg" xml:space="preserve" width="709px" height="118px" version="1.1" style="shape-rendering:geometricPrecision; text-rendering:geometricPrecision; image-rendering:optimizeQuality; fill-rule:evenodd; clip-rule:evenodd"
viewBox="0 0 709 118"
 xmlns:xlink="http://www.w3.org/1999/xlink">
 <defs>
  <style type="text/css">
   <![CDATA[
    .fil0 {fill:black}
   ]]>
  </style>
 </defs>
 <g id="Layer_x0020_1">
  <metadata id="CorelCorpID_0Corel-Layer"/>
  <g id="_2665253560960">
   <path class="fil0" d="M615 108c2,1 3,3 7,5 3,1 8,2 11,1 0,-1 0,-2 0,-5 0,-15 0,-61 0,-73 0,-1 0,-6 0,-6 -3,-2 -11,-1 -15,2 0,1 -1,1 -1,2l-2 1c-2,-1 -3,-2 -4,-3 -2,-1 -4,-2 -5,-3 -26,-12 -62,8 -62,43 0,19 12,33 23,39 7,4 16,7 26,6 11,-1 15,-5 22,-9l0 0zm-31 -59c-11,3 -20,14 -17,28 2,10 13,20 27,17 11,-2 21,-13 18,-28 -3,-12 -15,-20 -28,-17l0 0z"/>
   <path class="fil0" d="M404 114c0,0 1,0 2,0 6,0 12,0 20,0 0,-7 0,-31 0,-40 0,-15 -3,-25 15,-25 18,-1 15,8 15,24 0,10 0,33 1,41l21 0c1,-9 0,-35 1,-46 0,-8 -2,-14 5,-18 5,-2 15,-2 20,0 6,3 5,9 5,17l0 47c6,1 17,0 22,0 1,-8 0,-31 0,-40 0,-14 1,-25 -6,-34 -9,-12 -28,-17 -44,-12 -7,1 -9,4 -14,6 -7,-6 -19,-9 -31,-8 -13,2 -21,7 -26,14 -8,10 -6,20 -6,34 0,7 -1,35 0,40l0 0z"/>
   <path class="fil0" d="M696 116l0 -23c-6,0 -8,3 -15,1 -5,-1 -7,-5 -7,-10 0,-10 0,-23 0,-33 7,0 16,2 20,-2 3,-3 2,-12 2,-20l-22 0c0,-8 -1,-14 -4,-18 -3,-3 -11,-7 -18,-5 0,25 0,53 0,78 0,24 19,37 44,32l0 0z"/>
   <path class="fil0" d="M369 106c1,0 10,9 18,5 1,-3 1,-65 1,-79 0,-1 0,-4 -1,-5 -2,-2 -11,0 -14,3l-4 3c-2,-1 -2,-2 -4,-3 -24,-17 -67,1 -66,40 0,19 11,32 22,39 7,4 16,6 26,6 11,-1 15,-5 22,-9l0 0zm-31 -59c-10,3 -20,14 -17,28 7,28 52,20 45,-11 -2,-12 -15,-20 -28,-17z"/>
   <path class="fil0" d="M131 106c1,0 10,9 18,5 1,-3 0,-65 0,-79l0 -3c0,0 0,-1 0,-1 -1,-3 -10,-2 -16,4l-2 1c-3,-1 -3,-3 -9,-6 -13,-5 -29,-4 -39,3 -32,19 -29,62 0,79 7,4 16,6 26,6 11,-1 15,-5 22,-9l0 0zm-31 -59c-29,7 -19,51 10,45 30,-6 20,-52 -10,-45z"/>
   <path class="fil0" d="M170 87c-2,22 -2,26 19,28 43,3 48,-34 30,-48 -5,-4 -17,-9 -24,-12 -3,-2 -6,-2 -6,-6 8,-8 32,1 34,1l0 -23c-11,-4 -33,-5 -43,1 -11,6 -19,22 -9,36 7,10 28,15 33,19 4,3 2,7 -2,8 -13,5 -29,-5 -32,-4l0 0z"/>
   <path class="fil0" d="M287 114l0 -24c-3,1 -21,8 -21,-8 0,-10 -1,-23 0,-33 6,0 16,2 20,-2 2,-3 2,-16 1,-20l-21 0c0,-8 -1,-14 -5,-18 -3,-4 -10,-7 -17,-5 -1,24 -1,53 0,78 0,24 18,37 43,32l0 0z"/>
   <path class="fil0" d="M49 114l0 -24c-4,1 -21,8 -21,-8 -1,-10 -1,-23 0,-33 5,0 16,2 19,-2 3,-3 3,-16 1,-20l-20 0c0,-8 -2,-14 -5,-18 -3,-4 -11,-7 -18,-5 -1,24 0,53 0,78 1,24 19,37 44,32l0 0z"/>
  </g>
 </g>
</svg>
